<svg width="230" height="155" xmlns="http://www.w3.org/2000/svg"><path d="M43.2 21.8V151H.6v-8.8h14.6V53H.6l42.6-31.2zm49 120.4v8.8H49.6V17.8L77.6 0v142.2h14.6zm96-123.8v119.8c0 6.6-1.8 9.8-7.8 12.6-5.6 2.4-15.8 3.4-22 3.4-18.6 0-33-9.2-42.8-24.6l7.6-4.2c6.8 10.6 17.8 20.8 31.2 20.8 2 0 3.8-.2 5.8-.8v-41.2c-24.8-3.8-48.6-23-48.6-49.6C111.6 24 135.8 4 165.4 4c4.2 0 11.2.6 15 2 6 2.2 7.8 6.2 7.8 12.4zm-28 76.8V12.8c-22.6 2.8-39.8 18.2-39.8 41.8 0 22 19.8 37.2 39.8 40.6zm34.4 37.4V23.8c0-3.8-.6-7.8-1.8-11.4 26.6 10.8 36.6 39 36.6 65.8 0 27.2-9.8 54.6-36.6 65.8 1.2-3.6 1.8-7.6 1.8-11.4z" fill="#FFFFFF" fill-rule="evenodd"/></svg>
